<mxfile host="app.diagrams.net" modified="2024-05-27T16:28:04.223Z" agent="Mozilla/5.0 (Windows NT 10.0; Win64; x64) AppleWebKit/537.36 (KHTML, like Gecko) Chrome/125.0.0.0 Safari/537.36 Edg/125.0.0.0" version="24.2.5" etag="sFn6usVO0PDa9dz3TPY3" type="github">
  <diagram name="Страница — 1" id="TLgoZFIY4_p6krh7GE0z">
    <mxGraphModel>
      <root>
        <mxCell id="0" />
        <mxCell id="1" parent="0" />
      </root>
    </mxGraphModel>
  </diagram>
</mxfile>
